<svg xmlns="http://www.w3.org/2000/svg" xmlns:xlink="http://www.w3.org/1999/xlink" viewBox="0 0 90 90"><defs><style>.cls-1{fill:none;}.cls-2{clip-path:url(#clip-path);}.cls-3{fill:#303c42;}.cls-4{fill:#07b107;}.cls-5{fill:#fff;opacity:0.2;}.cls-5,.cls-6,.cls-7{isolation:isolate;}.cls-6,.cls-7{opacity:0.1;}.cls-8{fill:#fafafa;}</style><clipPath id="clip-path" transform="translate(-3.98 -9.59)"><rect class="cls-1" width="100" height="100"/></clipPath></defs><title>renting</title><g id="Layer_2" data-name="Layer 2"><g id="Layer_1-2" data-name="Layer 1"><g class="cls-2"><path class="cls-3" d="M94.11,46.63l-19-3L54.34,16l-.86-4.73a2,2,0,0,0-2.33-1.61l-4.92.9a2,2,0,0,0-1.61,2.33l.69,3.75-14.44,20L11.14,33.47a2,2,0,0,0-2.28,1.66L4,65.75A2,2,0,0,0,5.66,68l83,13.16a2,2,0,0,0,2.29-1.67l4.85-30.61A2,2,0,0,0,94.11,46.63ZM48.3,19.3l3.11-.58,18,24L35.3,37.3Z" transform="translate(-3.98 -9.59)"/><rect class="cls-4" x="36.89" y="17.83" width="26" height="79" transform="translate(110.35 7.45) rotate(99.01)"/><polygon class="cls-5" points="8.31 32.67 8.93 28.72 86.96 41.09 83.67 61.83 82.65 44.46 8.31 32.67"/><polygon class="cls-6" points="83.51 62.82 82.89 66.77 4.86 54.4 8.15 33.66 9.17 51.03 83.51 62.82"/><g class="cls-7"><path d="M26,57.84l1.72-6,.95.15a.7.7,0,0,1,.43.2.56.56,0,0,1,.09.46l-.11.7a3.36,3.36,0,0,1,.92-.84,1.36,1.36,0,0,1,.91-.21,1.12,1.12,0,0,1,.48.2l-.61,1.64a1.41,1.41,0,0,0-.55-.22,1,1,0,0,0-.87.29,3.21,3.21,0,0,0-.79,1.23l-.77,2.71Z" transform="translate(-3.98 -9.59)"/><path d="M38.1,55a1.67,1.67,0,0,1-.29.74,1.53,1.53,0,0,1-.67.53,3.86,3.86,0,0,1-1.18.28,10.48,10.48,0,0,1-1.8,0,1.35,1.35,0,0,0,.13,1A1,1,0,0,0,35,58a2.19,2.19,0,0,0,.43,0,1.63,1.63,0,0,0,.33-.05l.26-.1.23-.11.22-.07a.52.52,0,0,1,.25,0,.33.33,0,0,1,.16.07.58.58,0,0,1,.13.14l.39.62a7.84,7.84,0,0,1-.73.46,3.79,3.79,0,0,1-.7.28,2.93,2.93,0,0,1-.73.11,4.68,4.68,0,0,1-.82-.05,2.79,2.79,0,0,1-1-.35,2.3,2.3,0,0,1-1.08-1.55,3.11,3.11,0,0,1,0-1.1,4.22,4.22,0,0,1,.26-.94,4.43,4.43,0,0,1,.46-.83,3.35,3.35,0,0,1,.62-.68,3.4,3.4,0,0,1,.76-.49,3.14,3.14,0,0,1,.87-.26,3.1,3.1,0,0,1,1,0,2.42,2.42,0,0,1,.86.28,2.13,2.13,0,0,1,.58.47,1.75,1.75,0,0,1,.32.58A1.32,1.32,0,0,1,38.1,55Zm-2.1-.7a1.08,1.08,0,0,0-.86.24,2.31,2.31,0,0,0-.67.92c.39,0,.71,0,1,0a2.18,2.18,0,0,0,.58-.13.7.7,0,0,0,.31-.21.54.54,0,0,0,.11-.27.43.43,0,0,0-.07-.31A.48.48,0,0,0,36,54.32Z" transform="translate(-3.98 -9.59)"/><path d="M43,60.55l1.09-3.83c0-.06,0-.12,0-.17l0-.15a.68.68,0,0,0,0-.45.39.39,0,0,0-.31-.18.88.88,0,0,0-.44.06,1.54,1.54,0,0,0-.47.28,3.12,3.12,0,0,0-.46.49,4,4,0,0,0-.37.68l-.82,3L39.45,60l1.71-6,1,.15a.65.65,0,0,1,.42.21.49.49,0,0,1,.09.46l-.07.49a3,3,0,0,1,1.11-.72,2.32,2.32,0,0,1,1.13-.11,1.55,1.55,0,0,1,.61.23,1.32,1.32,0,0,1,.44.44,1.8,1.8,0,0,1,.23.64,2.58,2.58,0,0,1,0,.83,1.55,1.55,0,0,1,0,.21L46,57l-1.08,3.83Z" transform="translate(-3.98 -9.59)"/><path d="M48.55,60.06l0-.1s0-.09,0-.16,0-.17.08-.29.08-.27.13-.47l.71-2.46L49,56.5a.27.27,0,0,1-.18-.1.36.36,0,0,1,0-.24l0-.1.06-.2a1.94,1.94,0,0,0,.05-.2.62.62,0,0,0,0-.11L49,55.4l1,0,.75-1.41a.38.38,0,0,1,.45-.22l1,.15-.51,1.76,1.38.22-.36,1.23-1.37-.21-.68,2.36c0,.16-.08.28-.1.38l-.06.2,0,.1v0a.5.5,0,0,0,0,.3.3.3,0,0,0,.23.15h.16l.12,0,.09,0a.17.17,0,0,1,.1,0c.06,0,.1,0,.12,0a.64.64,0,0,1,.06.14l.26.93a2.83,2.83,0,0,1-.85.28,3.17,3.17,0,0,1-.87,0,2.26,2.26,0,0,1-.62-.2,1.62,1.62,0,0,1-.45-.36,1.36,1.36,0,0,1-.24-.5A1.79,1.79,0,0,1,48.55,60.06Z" transform="translate(-3.98 -9.59)"/><path d="M57.49,56.54l-1.71,6L54,62.29l1.71-6Zm.61-1.62a.83.83,0,0,1-.16.39,1.07,1.07,0,0,1-.3.3,1.38,1.38,0,0,1-.39.18,1.19,1.19,0,0,1-.42,0,.89.89,0,0,1-.38-.15,1,1,0,0,1-.3-.29A1.16,1.16,0,0,1,56,55a.89.89,0,0,1,0-.43,1,1,0,0,1,.15-.4,1.07,1.07,0,0,1,.3-.3.91.91,0,0,1,.37-.18,1,1,0,0,1,.42,0,1.32,1.32,0,0,1,.39.15,1.07,1.07,0,0,1,.31.29,1,1,0,0,1,.19.38A.93.93,0,0,1,58.1,54.92Z" transform="translate(-3.98 -9.59)"/><path d="M62.42,63.63l1.08-3.84a1.54,1.54,0,0,0,0-.17l0-.15a.68.68,0,0,0,0-.45.48.48,0,0,0-.31-.18.87.87,0,0,0-.44.06,1.76,1.76,0,0,0-.48.29,3.11,3.11,0,0,0-.45.49,3.06,3.06,0,0,0-.37.67l-.82,3-1.84-.29,1.71-6,1,.15a.69.69,0,0,1,.42.2.56.56,0,0,1,.09.46l-.08.49A3.29,3.29,0,0,1,63,57.61a2.35,2.35,0,0,1,1.14-.1,1.54,1.54,0,0,1,.61.22,1.32,1.32,0,0,1,.44.44,1.8,1.8,0,0,1,.23.64,2.58,2.58,0,0,1,0,.83,2.07,2.07,0,0,1,0,.22l-.06.22-1.08,3.84Z" transform="translate(-3.98 -9.59)"/><path d="M72.94,60.88a1.8,1.8,0,0,1-.21.63,3.64,3.64,0,0,1-.3.46l-.31.45a1.6,1.6,0,0,0-.19.57,1.18,1.18,0,0,0,0,.46c0,.15.07.3.11.45s.08.31.11.48a2.13,2.13,0,0,1,0,.56,2.09,2.09,0,0,1-.35.86,2.16,2.16,0,0,1-.72.65,3.11,3.11,0,0,1-1,.35,4.6,4.6,0,0,1-1.33,0,4.2,4.2,0,0,1-1-.3A2.59,2.59,0,0,1,66.9,66a1.6,1.6,0,0,1-.43-.59,1.24,1.24,0,0,1-.08-.66A1.37,1.37,0,0,1,66.8,64a1.77,1.77,0,0,1,.76-.45,3,3,0,0,1,1-.15,4.72,4.72,0,0,1,1,.07,4.29,4.29,0,0,1,1,.24s0-.1,0-.15l0-.16a1.89,1.89,0,0,1,.27-.69,2,2,0,0,1-.57.16,2.45,2.45,0,0,1-.75,0,1.91,1.91,0,0,1-.66-.22,1.52,1.52,0,0,1-.5-.44,1.74,1.74,0,0,1-.3-.66,2.09,2.09,0,0,1,0-.87,2.47,2.47,0,0,1,.32-.87A2.34,2.34,0,0,1,69,59a2.63,2.63,0,0,1,1-.41,3.14,3.14,0,0,1,1.23,0,2.94,2.94,0,0,1,.66.19,1.92,1.92,0,0,1,.55.33l1.77.28-.17.56a.52.52,0,0,1-.42.4l-.55.1A2.93,2.93,0,0,1,72.94,60.88Zm-2.49,3.93v-.13c-.2-.07-.38-.12-.54-.16a3.21,3.21,0,0,0-.46-.1,2.84,2.84,0,0,0-.55,0,1.44,1.44,0,0,0-.4.07.7.7,0,0,0-.24.15.62.62,0,0,0-.1.22.53.53,0,0,0,.15.49,1.4,1.4,0,0,0,.73.28,1.76,1.76,0,0,0,.51,0,1.36,1.36,0,0,0,.43-.14,1.08,1.08,0,0,0,.3-.26A1,1,0,0,0,70.45,64.81Zm-.28-3a.68.68,0,0,0,.4-.05,1,1,0,0,0,.32-.25,1.6,1.6,0,0,0,.23-.38,2.32,2.32,0,0,0,.13-.45.94.94,0,0,0-.07-.62.57.57,0,0,0-.46-.29.63.63,0,0,0-.39,0A.9.9,0,0,0,70,60a1.51,1.51,0,0,0-.22.37,2.42,2.42,0,0,0-.13.46,1.08,1.08,0,0,0,.06.64A.57.57,0,0,0,70.17,61.81Z" transform="translate(-3.98 -9.59)"/></g><path class="cls-8" d="M26.11,56.85l1.72-6,1,.15a.69.69,0,0,1,.42.2.5.5,0,0,1,.09.46l-.11.7a3.38,3.38,0,0,1,.93-.84,1.34,1.34,0,0,1,.91-.2,1.06,1.06,0,0,1,.47.19l-.6,1.65a1.51,1.51,0,0,0-.55-.23,1.09,1.09,0,0,0-.88.29,3.26,3.26,0,0,0-.78,1.23l-.77,2.71Z" transform="translate(-3.98 -9.59)"/><path class="cls-8" d="M38.26,54a1.8,1.8,0,0,1-.29.74,1.49,1.49,0,0,1-.68.53,4,4,0,0,1-1.18.29,10.57,10.57,0,0,1-1.8,0,1.43,1.43,0,0,0,.14,1,1,1,0,0,0,.73.41,2.22,2.22,0,0,0,.43,0,1.4,1.4,0,0,0,.32-.06,1.69,1.69,0,0,0,.27-.1l.22-.1a1,1,0,0,1,.22-.08.7.7,0,0,1,.25,0,.36.36,0,0,1,.17.07.86.86,0,0,1,.13.14l.38.63a6,6,0,0,1-.72.45,3.41,3.41,0,0,1-.7.28,2.6,2.6,0,0,1-.74.11,4.8,4.8,0,0,1-.82-.05,2.81,2.81,0,0,1-1-.35,2.29,2.29,0,0,1-.7-.65,2.43,2.43,0,0,1-.38-.9,3.11,3.11,0,0,1,0-1.1,4.22,4.22,0,0,1,.26-.94,3.89,3.89,0,0,1,.45-.83,4,4,0,0,1,.62-.68,3.46,3.46,0,0,1,.77-.49,3.14,3.14,0,0,1,.87-.26,3.44,3.44,0,0,1,1,0,2.58,2.58,0,0,1,.85.28,2.39,2.39,0,0,1,.59.47,1.64,1.64,0,0,1,.31.58A1.33,1.33,0,0,1,38.26,54Zm-2.1-.7a1.1,1.1,0,0,0-.86.24,2.29,2.29,0,0,0-.67.92,8.5,8.5,0,0,0,1,0,2.28,2.28,0,0,0,.58-.13.63.63,0,0,0,.3-.2.77.77,0,0,0,.12-.28.51.51,0,0,0-.07-.31A.53.53,0,0,0,36.16,53.33Z" transform="translate(-3.98 -9.59)"/><path class="cls-8" d="M43.2,59.56l1.08-3.83c0-.06,0-.12,0-.17l0-.15a.68.68,0,0,0,0-.45.48.48,0,0,0-.31-.18.87.87,0,0,0-.44.06,1.76,1.76,0,0,0-.48.29,2.72,2.72,0,0,0-.45.49,3.06,3.06,0,0,0-.37.67l-.82,3L39.61,59l1.71-6,1,.15a.69.69,0,0,1,.42.2.56.56,0,0,1,.09.46l-.08.49a3.29,3.29,0,0,1,1.11-.72,2.34,2.34,0,0,1,1.14-.1,1.54,1.54,0,0,1,.61.22,1.42,1.42,0,0,1,.44.44,1.8,1.8,0,0,1,.23.64,2.58,2.58,0,0,1,0,.83c0,.07,0,.14,0,.22l-.06.22L45,59.86Z" transform="translate(-3.98 -9.59)"/><path class="cls-8" d="M48.71,59.08V59s0-.1,0-.17,0-.17.08-.29.07-.27.13-.46l.71-2.47-.49-.08a.24.24,0,0,1-.18-.1.29.29,0,0,1,0-.23l0-.11c0-.06,0-.13,0-.2l.06-.2,0-.1,0-.16,1,0L50.9,53a.37.37,0,0,1,.44-.22l1,.16-.51,1.76,1.37.21-.35,1.24-1.37-.22-.68,2.36c0,.16-.08.29-.11.38a1.42,1.42,0,0,1-.06.21l0,.1v0a.5.5,0,0,0,0,.3.28.28,0,0,0,.24.15.45.45,0,0,0,.16,0l.11,0,.1,0h.1a.23.23,0,0,1,.12.06.53.53,0,0,1,.06.13l.26.94a2.9,2.9,0,0,1-.85.27,2.82,2.82,0,0,1-.87,0,1.94,1.94,0,0,1-.63-.2,1.54,1.54,0,0,1-.44-.36,1.31,1.31,0,0,1-.25-.5A1.54,1.54,0,0,1,48.71,59.08Z" transform="translate(-3.98 -9.59)"/><path class="cls-8" d="M57.65,55.56l-1.71,6-1.81-.29,1.71-6Zm.61-1.63a1,1,0,0,1-.16.4,1.18,1.18,0,0,1-.3.29,1.38,1.38,0,0,1-.39.18,1.19,1.19,0,0,1-.42,0,.84.84,0,0,1-.38-.15,1.15,1.15,0,0,1-.3-.28,1.33,1.33,0,0,1-.18-.38,1,1,0,0,1,0-.42,1.16,1.16,0,0,1,.45-.71,1.46,1.46,0,0,1,.38-.18.82.82,0,0,1,.41,0,1.12,1.12,0,0,1,.4.14,1.42,1.42,0,0,1,.31.29,1.69,1.69,0,0,1,.19.38A1.08,1.08,0,0,1,58.26,53.93Z" transform="translate(-3.98 -9.59)"/><path class="cls-8" d="M62.58,62.64l1.08-3.83c0-.07,0-.12.05-.18a.77.77,0,0,0,0-.15.62.62,0,0,0,0-.45.41.41,0,0,0-.31-.17.87.87,0,0,0-.44,0,1.87,1.87,0,0,0-.47.29,2.7,2.7,0,0,0-.45.49,3.31,3.31,0,0,0-.37.67l-.83,3L59,62.07l1.71-6,.94.15a.75.75,0,0,1,.43.2.56.56,0,0,1,.09.46l-.08.5a3,3,0,0,1,1.11-.72,2.23,2.23,0,0,1,1.14-.11,1.59,1.59,0,0,1,.61.22,1.32,1.32,0,0,1,.43.45,1.74,1.74,0,0,1,.24.64,2.52,2.52,0,0,1,0,.82,2.25,2.25,0,0,1,0,.22c0,.07,0,.15,0,.23l-1.08,3.83Z" transform="translate(-3.98 -9.59)"/><path class="cls-8" d="M73.1,59.89a1.8,1.8,0,0,1-.21.63,5.46,5.46,0,0,1-.31.47,5,5,0,0,0-.3.45,1.47,1.47,0,0,0-.2.57,1.41,1.41,0,0,0,0,.46c0,.14.07.29.11.44s.07.31.1.48a1.75,1.75,0,0,1,0,.56,2.09,2.09,0,0,1-.35.86,2.26,2.26,0,0,1-.72.65,2.9,2.9,0,0,1-1,.35,4.27,4.27,0,0,1-1.33,0,4.42,4.42,0,0,1-1.06-.29,2.77,2.77,0,0,1-.74-.47,1.6,1.6,0,0,1-.43-.59,1.24,1.24,0,0,1-.08-.66A1.45,1.45,0,0,1,67,63a1.81,1.81,0,0,1,.77-.45,3,3,0,0,1,1-.15,5.42,5.42,0,0,1,1,.07l.52.1.44.14a.76.76,0,0,1,0-.15l0-.15a2,2,0,0,1,.27-.7,1.72,1.72,0,0,1-.57.16,2.52,2.52,0,0,1-.76,0,1.85,1.85,0,0,1-.65-.22,1.63,1.63,0,0,1-.81-1.1,2.29,2.29,0,0,1,0-.87,2.35,2.35,0,0,1,.32-.87,2.21,2.21,0,0,1,.64-.69,2.56,2.56,0,0,1,1-.41,3.1,3.1,0,0,1,1.22,0,2.67,2.67,0,0,1,.66.19,2.36,2.36,0,0,1,.56.33l1.77.28-.18.56a.52.52,0,0,1-.41.41l-.55.09A2.93,2.93,0,0,1,73.1,59.89Zm-2.5,3.93v-.07a.13.13,0,0,0,0-.06c-.2-.07-.38-.12-.54-.16s-.32-.08-.46-.1a4,4,0,0,0-.56,0,1.43,1.43,0,0,0-.39.07.6.6,0,0,0-.24.16.44.44,0,0,0-.1.22.54.54,0,0,0,.15.49,1.46,1.46,0,0,0,.72.27,1.83,1.83,0,0,0,.52,0,1.1,1.1,0,0,0,.42-.14.88.88,0,0,0,.31-.26A.84.84,0,0,0,70.6,63.82Zm-.27-3a.62.62,0,0,0,.4,0,.93.93,0,0,0,.31-.25,1.21,1.21,0,0,0,.23-.38,1.37,1.37,0,0,0,.13-.45,1,1,0,0,0-.06-.62.58.58,0,0,0-.46-.29.75.75,0,0,0-.4,0,.87.87,0,0,0-.31.23,1.19,1.19,0,0,0-.22.38,1.64,1.64,0,0,0-.13.46,1,1,0,0,0,.06.63A.54.54,0,0,0,70.33,60.82Z" transform="translate(-3.98 -9.59)"/></g></g></g></svg>
