<svg xmlns="http://www.w3.org/2000/svg" xmlns:xlink="http://www.w3.org/1999/xlink" viewBox="0 0 90 90"><defs><style>.cls-1{fill:none;}.cls-2{clip-path:url(#clip-path);}.cls-3{fill:#303c42;}.cls-4{fill:#fafafa;}.cls-5{opacity:0.1;}.cls-5,.cls-7{isolation:isolate;}.cls-6{fill:#07b107;}.cls-7{fill:#fff;opacity:0.2;}</style><clipPath id="clip-path" transform="translate(-12.5 -5)"><rect class="cls-1" width="100" height="100"/></clipPath></defs><title>wedding</title><g id="Layer_2" data-name="Layer 2"><g id="Layer_1-2" data-name="Layer 1"><g class="cls-2"><circle class="cls-3" cx="18.75" cy="9.37" r="9.37"/><circle class="cls-3" cx="56.25" cy="9.37" r="9.37"/><path class="cls-3" d="M85.63,65a1.88,1.88,0,0,0,1.86-2.11L84,34.58a5.51,5.51,0,0,0-2.49-4c-4.57-2.83-9-3.07-12.71-3.07s-8.14.24-12.71,3.07a5.51,5.51,0,0,0-2.49,4L50,62.89A1.88,1.88,0,0,0,51.88,65h3.3L50,89a1.89,1.89,0,0,0,1.84,2.27A16,16,0,0,1,59.55,93a19.78,19.78,0,0,0,9.2,2A19.78,19.78,0,0,0,78,93a16,16,0,0,1,7.68-1.71A1.89,1.89,0,0,0,87.46,89L82.32,65Z" transform="translate(-12.5 -5)"/><path id="SVGCleanerId_0" data-name="SVGCleanerId 0" class="cls-4" d="M83.33,87.6a19.56,19.56,0,0,0-6.9,1.94,16.06,16.06,0,0,1-7.68,1.71,16.06,16.06,0,0,1-7.68-1.71,19.56,19.56,0,0,0-6.9-1.94l5.16-24.08a1.87,1.87,0,0,0-1.83-2.27H54L57.27,35A1.72,1.72,0,0,1,58,33.76a15.43,15.43,0,0,1,3.51-1.58A1.83,1.83,0,0,0,65,31.46a34.31,34.31,0,0,1,7.58,0,1.84,1.84,0,0,0,3.43.72,15,15,0,0,1,3.51,1.58A1.72,1.72,0,0,1,80.23,35L83.5,61.25H80a1.87,1.87,0,0,0-1.83,2.27Z" transform="translate(-12.5 -5)"/><path id="SVGCleanerId_0-2" data-name="SVGCleanerId 0" class="cls-4" d="M83.33,87.6a19.56,19.56,0,0,0-6.9,1.94,16.06,16.06,0,0,1-7.68,1.71,16.06,16.06,0,0,1-7.68-1.71,19.56,19.56,0,0,0-6.9-1.94l5.16-24.08a1.87,1.87,0,0,0-1.83-2.27H54L57.27,35A1.72,1.72,0,0,1,58,33.76a15.43,15.43,0,0,1,3.51-1.58A1.83,1.83,0,0,0,65,31.46a34.31,34.31,0,0,1,7.58,0,1.84,1.84,0,0,0,3.43.72,15,15,0,0,1,3.51,1.58A1.72,1.72,0,0,1,80.23,35L83.5,61.25H80a1.87,1.87,0,0,0-1.83,2.27Z" transform="translate(-12.5 -5)"/><path class="cls-5" d="M78.54,62a1.88,1.88,0,0,1,1.46-.7h3.5L80.23,35a1.72,1.72,0,0,0-.75-1.28A13.13,13.13,0,0,0,78.05,33c0,.06,0,.1,0,.16l3.28,26.21h-3.5A1.87,1.87,0,0,0,76,61.64L81.2,85.72a19.84,19.84,0,0,0-6.9,1.94,16,16,0,0,1-7.67,1.72A16,16,0,0,1,59,87.66a21.69,21.69,0,0,0-4.46-1.55l-.32,1.49a19.56,19.56,0,0,1,6.9,1.94,16.06,16.06,0,0,0,7.68,1.71,16.06,16.06,0,0,0,7.68-1.71,19.56,19.56,0,0,1,6.9-1.94L78.17,63.52A1.88,1.88,0,0,1,78.54,62Z" transform="translate(-12.5 -5)"/><circle class="cls-4" cx="56.25" cy="9.37" r="5.63"/><path class="cls-5" d="M71.66,9.59a5.56,5.56,0,0,1,.84,2.91A5.59,5.59,0,0,1,64,17.29a5.61,5.61,0,1,0,7.7-7.7Z" transform="translate(-12.5 -5)"/><circle class="cls-3" cx="52.5" cy="30" r="1.88"/><circle class="cls-3" cx="56.25" cy="31.87" r="1.88"/><circle class="cls-3" cx="60" cy="30" r="1.88"/><path class="cls-3" d="M47.53,32.33a29.47,29.47,0,0,0-10.65-4.15V27.5a1.89,1.89,0,0,0-2.72-1.68l-2.91,1.46-2.91-1.46a1.89,1.89,0,0,0-1.83.09,1.87,1.87,0,0,0-.89,1.59v.68A29.47,29.47,0,0,0,15,32.33,5.53,5.53,0,0,0,12.5,37V63.12A1.88,1.88,0,0,0,14.37,65H20V93.12A1.88,1.88,0,0,0,21.88,95H40.63a1.88,1.88,0,0,0,1.87-1.88V65h5.63A1.88,1.88,0,0,0,50,63.12V37A5.53,5.53,0,0,0,47.53,32.33Z" transform="translate(-12.5 -5)"/><path class="cls-6" d="M46.25,61.25H40.63a1.88,1.88,0,0,0-1.88,1.88V91.25h-15V63.13a1.88,1.88,0,0,0-1.87-1.88H16.25V37A1.79,1.79,0,0,1,17,35.48,25.51,25.51,0,0,1,25.81,32a1.78,1.78,0,0,0,.71.89,1.82,1.82,0,0,0,1,.28,1.91,1.91,0,0,0,.84-.19l2.91-1.46,2.91,1.46a1.91,1.91,0,0,0,.84.19,1.86,1.86,0,0,0,1-.28,1.81,1.81,0,0,0,.7-.89,25.64,25.64,0,0,1,8.8,3.53A1.8,1.8,0,0,1,46.25,37V61.25Z" transform="translate(-12.5 -5)"/><path class="cls-7" d="M20.57,35.48a16.68,16.68,0,0,1,5.52-3.17c-.08-.13-.22-.22-.28-.36A25.51,25.51,0,0,0,17,35.48,1.79,1.79,0,0,0,16.25,37V61.25H20V37A2.06,2.06,0,0,1,20.57,35.48Z" transform="translate(-12.5 -5)"/><path class="cls-7" d="M24.22,61.25H21.88a1.88,1.88,0,0,1,1.87,1.88V91.25h1.88V63.13C25.63,62.09,25,61.25,24.22,61.25Z" transform="translate(-12.5 -5)"/><path class="cls-5" d="M45.49,35.48A25.64,25.64,0,0,0,36.69,32c-.06.14-.2.23-.28.36a16.68,16.68,0,0,1,5.52,3.17A2.06,2.06,0,0,1,42.5,37V61.25h3.75V37A1.8,1.8,0,0,0,45.49,35.48Z" transform="translate(-12.5 -5)"/><path class="cls-5" d="M36.88,63.13V91.25h1.87V63.13a1.88,1.88,0,0,1,1.88-1.88H38.28C37.5,61.25,36.88,62.09,36.88,63.13Z" transform="translate(-12.5 -5)"/><circle class="cls-4" cx="18.75" cy="9.37" r="5.63"/><path class="cls-5" d="M34.16,9.59A5.56,5.56,0,0,1,35,12.5a5.59,5.59,0,0,1-8.54,4.79,5.61,5.61,0,1,0,7.7-7.7Z" transform="translate(-12.5 -5)"/></g></g></g></svg>
