<svg xmlns="http://www.w3.org/2000/svg" xmlns:xlink="http://www.w3.org/1999/xlink" viewBox="0 0 90 90"><defs><style>.cls-1{fill:none;}.cls-2{clip-path:url(#clip-path);}.cls-3{fill:#303c42;}.cls-4{fill:#07b107;}.cls-5{opacity:0.1;}.cls-6{fill:#fff;}</style><clipPath id="clip-path" transform="translate(-5 -5)"><rect class="cls-1" width="100" height="100"/></clipPath></defs><title>wellness</title><g id="Layer_2" data-name="Layer 2"><g id="Layer_1-2" data-name="Layer 1"><g class="cls-2"><path class="cls-3" d="M84.37,58C96,45.56,95,25.88,95,25a2.64,2.64,0,0,0-2.48-2.49,56.77,56.77,0,0,0-13.21,1.15,57.72,57.72,0,0,0-4-12.63A2.63,2.63,0,0,0,72,9.71a56.68,56.68,0,0,0-11.75,6.12A56.4,56.4,0,0,0,51.76,5.68a2.63,2.63,0,0,0-3.52,0,56.4,56.4,0,0,0-8.53,10.15A56.68,56.68,0,0,0,28,9.71a2.64,2.64,0,0,0-3.25,1.35,57.72,57.72,0,0,0-4,12.63A56.77,56.77,0,0,0,7.52,22.54,2.64,2.64,0,0,0,5,25c0,.85-1,20.53,10.59,33a41.45,41.45,0,0,0-10,7.75,2.62,2.62,0,0,0,0,3.51c.42.47,10.41,11.47,23.14,11.47a25.25,25.25,0,0,0,9.25-1.85C41,87.76,47.92,94,48.24,94.32a2.62,2.62,0,0,0,3.52,0C52.08,94,59,87.76,61.93,78.88a25.25,25.25,0,0,0,9.25,1.85c12.73,0,22.72-11,23.14-11.47a2.62,2.62,0,0,0,0-3.51A41.45,41.45,0,0,0,84.37,58Z" transform="translate(-5 -5)"/><path class="cls-4" d="M79.88,55.06C73,61.92,62.81,64,56.31,64.64,61,59.05,67.6,49.11,67.6,37.57a30,30,0,0,0-.24-3.81c8-4.94,17.83-5.83,22.34-5.95C89.55,33.3,88.29,46.66,79.88,55.06ZM63,20.37a43.1,43.1,0,0,1,3.25,8A41.87,41.87,0,0,1,74.15,25a56.6,56.6,0,0,0-2.66-9.37A56.35,56.35,0,0,0,63,20.37ZM37.67,37.57c0,11.84,8.55,22.21,12.33,26.21,3.78-4,12.33-14.37,12.33-26.21a27.27,27.27,0,0,0-.4-4.54h0C60.19,23.11,53.29,14.83,50,11.36,46.23,15.36,37.67,25.73,37.67,37.57ZM25.85,25a41.87,41.87,0,0,1,7.91,3.32A43.1,43.1,0,0,1,37,20.37a56.35,56.35,0,0,0-8.5-4.74A56.6,56.6,0,0,0,25.85,25ZM10.3,27.8c.16,5.5,1.44,18.88,9.82,27.26,6.88,6.88,17.09,9,23.57,9.59C39,59.06,32.4,49.12,32.4,37.57a32,32,0,0,1,.23-3.81C24.61,28.8,14.81,27.92,10.3,27.8ZM28.82,75.46a21.5,21.5,0,0,0,9.66-2.54,2.44,2.44,0,0,1,.28-.14,34.67,34.67,0,0,0,4.53-2.85c-6.3-.58-15.78-2.45-23.45-8.17A36.1,36.1,0,0,0,11.4,67.5C14.5,70.3,21.24,75.46,28.82,75.46Zm28.32,1.07A42.06,42.06,0,0,1,50,71.22a42.06,42.06,0,0,1-7.14,5.31A32.69,32.69,0,0,0,50,88.6,33.08,33.08,0,0,0,57.14,76.53Zm31.46-9a36.43,36.43,0,0,0-8.44-5.75C72.49,67.47,63,69.34,56.73,69.92c3.55,2.64,8.77,5.54,14.45,5.54C78.79,75.46,85.51,70.31,88.6,67.51Z" transform="translate(-5 -5)"/><path class="cls-4" d="M79.88,55.06C73,61.92,62.81,64,56.31,64.64,61,59.05,67.6,49.11,67.6,37.57a30,30,0,0,0-.24-3.81c8-4.94,17.83-5.83,22.34-5.95C89.55,33.3,88.29,46.66,79.88,55.06ZM63,20.37a43.1,43.1,0,0,1,3.25,8A41.87,41.87,0,0,1,74.15,25a56.6,56.6,0,0,0-2.66-9.37A56.35,56.35,0,0,0,63,20.37ZM37.67,37.57c0,11.84,8.55,22.21,12.33,26.21,3.78-4,12.33-14.37,12.33-26.21a27.27,27.27,0,0,0-.4-4.54h0C60.19,23.11,53.29,14.83,50,11.36,46.23,15.36,37.67,25.73,37.67,37.57ZM25.85,25a41.87,41.87,0,0,1,7.91,3.32A43.1,43.1,0,0,1,37,20.37a56.35,56.35,0,0,0-8.5-4.74A56.6,56.6,0,0,0,25.85,25ZM10.3,27.8c.16,5.5,1.44,18.88,9.82,27.26,6.88,6.88,17.09,9,23.57,9.59C39,59.06,32.4,49.12,32.4,37.57a32,32,0,0,1,.23-3.81C24.61,28.8,14.81,27.92,10.3,27.8ZM28.82,75.46a21.5,21.5,0,0,0,9.66-2.54,2.44,2.44,0,0,1,.28-.14,34.67,34.67,0,0,0,4.53-2.85c-6.3-.58-15.78-2.45-23.45-8.17A36.1,36.1,0,0,0,11.4,67.5C14.5,70.3,21.24,75.46,28.82,75.46Zm28.32,1.07A42.06,42.06,0,0,1,50,71.22a42.06,42.06,0,0,1-7.14,5.31A32.69,32.69,0,0,0,50,88.6,33.08,33.08,0,0,0,57.14,76.53Zm31.46-9a36.43,36.43,0,0,0-8.44-5.75C72.49,67.47,63,69.34,56.73,69.92c3.55,2.64,8.77,5.54,14.45,5.54C78.79,75.46,85.51,70.31,88.6,67.51Z" transform="translate(-5 -5)"/><g class="cls-5"><path class="cls-6" d="M42.27,33.76a42.64,42.64,0,0,1,1.14-5.35c.24-.9.55-1.8.83-2.72l.49-1.37.51-1.38c.08-.23.18-.45.27-.68l.27-.7c.18-.47.39-.92.58-1.39s.39-.93.59-1.4.41-.94.62-1.41c.82-1.9,1.73-3.79,2.6-5.83l-.12-.12,0-.05c-3.78,4-12.33,14.37-12.33,26.21S46.22,59.78,50,63.78h0l.16-.18c-1.19-2.75-2.42-5.31-3.5-7.86a77.66,77.66,0,0,1-2.83-7.54c-.4-1.23-.72-2.47-1-3.68a36.82,36.82,0,0,1-.63-3.63,32.92,32.92,0,0,1-.2-3.55,33.34,33.34,0,0,1,.26-3.57Z" transform="translate(-5 -5)"/><path class="cls-6" d="M89.58,27.81A92.1,92.1,0,0,1,85.9,41a37.28,37.28,0,0,1-6.4,11.29A31.61,31.61,0,0,1,69.15,59.9a57.22,57.22,0,0,1-6.23,2.55c-2.1.76-4.27,1.37-6.47,2l-.14.16C62.81,64,73,61.92,79.88,55.06c8.41-8.4,9.67-21.76,9.82-27.25Z" transform="translate(-5 -5)"/><path class="cls-6" d="M43.69,64.65h0l-.13-.16c-2.21-.66-4.37-1.27-6.47-2a57.43,57.43,0,0,1-6.24-2.56,31.54,31.54,0,0,1-10.34-7.61A36.91,36.91,0,0,1,14.11,41a93.82,93.82,0,0,1-3.69-13.18H10.3c.16,5.5,1.44,18.88,9.82,27.26C27,61.94,37.21,64,43.69,64.65Z" transform="translate(-5 -5)"/></g><g class="cls-5"><path d="M33.76,28.32A43.1,43.1,0,0,1,37,20.37h0l-.11-.06A9.23,9.23,0,0,0,35,21.82a12.34,12.34,0,0,0-1.45,1.79l-.31.47-.29.5c-.16.27-.29.55-.43.83a8.57,8.57,0,0,0-.9-.28L31.12,25l-.56-.12a13.37,13.37,0,0,0-2.29-.24,11.77,11.77,0,0,0-1.18.05,8.9,8.9,0,0,0-1.2.21l0,.12A41.87,41.87,0,0,1,33.76,28.32Z" transform="translate(-5 -5)"/><path d="M43.27,69.93c-6.3-.59-15.76-2.45-23.43-8.17a31.57,31.57,0,0,0-3.06,1.68,29.53,29.53,0,0,0,5.16,2.93A38.52,38.52,0,0,0,29,68.7a50.4,50.4,0,0,0,7.15,1.07A64.59,64.59,0,0,0,43.27,69.93Z" transform="translate(-5 -5)"/><path d="M67.6,37.57c0,11.54-6.6,21.48-11.29,27.07a57,57,0,0,0,6.09-6.85,47.52,47.52,0,0,0,4.91-8,36.79,36.79,0,0,0,3.06-9.19c.08-.41.16-.82.21-1.23l.1-.62.07-.62c0-.21,0-.42.07-.62l0-.6.05-1.17c0-.77.06-1.54.08-2.33,0-.39,0-.78,0-1.19v-.39a34.14,34.14,0,0,0-3.63,1.92A30,30,0,0,1,67.6,37.57Z" transform="translate(-5 -5)"/><path d="M57.16,44.52c-.28,1.21-.6,2.45-1,3.68a77.66,77.66,0,0,1-2.83,7.54c-1.08,2.55-2.31,5.11-3.5,7.86l.17.18h0c3.78-4,12.33-14.37,12.33-26.21a27.27,27.27,0,0,0-.4-4.54h0C60.19,23.11,53.29,14.83,50,11.36l-.17.18c.87,2,1.78,3.92,2.6,5.82.21.47.42.94.62,1.41s.41.93.59,1.4.4.92.58,1.39l.27.7c.09.23.19.45.27.68l.51,1.38.49,1.37c.28.92.59,1.82.83,2.72a42.64,42.64,0,0,1,1.14,5.35h0A33.34,33.34,0,0,1,58,37.34a32.92,32.92,0,0,1-.2,3.55A36.82,36.82,0,0,1,57.16,44.52Z" transform="translate(-5 -5)"/><path d="M74.15,25l0-.12a8.9,8.9,0,0,0-1.2-.21,11.77,11.77,0,0,0-1.18-.05,13.37,13.37,0,0,0-2.29.24l-.56.12-.54.15a8.57,8.57,0,0,0-.9.28c-.14-.28-.28-.56-.43-.83l-.29-.5-.31-.47A12.34,12.34,0,0,0,65,21.82a9,9,0,0,0-1.87-1.51l-.1.06a43.1,43.1,0,0,1,3.25,8A41.87,41.87,0,0,1,74.15,25Z" transform="translate(-5 -5)"/><path d="M42.86,76.53l.06.11a7.48,7.48,0,0,0,1.26-.1,11.4,11.4,0,0,0,1.19-.25,13,13,0,0,0,2.23-.84l.53-.26.52-.29c.34-.19.66-.41,1-.62L50,74l.36.26c.33.22.65.44,1,.63l.51.28.53.27a13.81,13.81,0,0,0,2.23.83,9.29,9.29,0,0,0,2.45.36l.06-.11A42.06,42.06,0,0,1,50,71.22,42.06,42.06,0,0,1,42.86,76.53Z" transform="translate(-5 -5)"/><path d="M29,33.42c0,.79,0,1.56.07,2.33l.06,1.17,0,.6c0,.2,0,.41.07.62l.07.62.09.62c.06.41.14.82.21,1.23A37.21,37.21,0,0,0,32.7,49.8a46.83,46.83,0,0,0,4.9,8,57.91,57.91,0,0,0,6,6.81C39,59,32.4,49.09,32.4,37.57a32,32,0,0,1,.23-3.81A33.06,33.06,0,0,0,29,31.84v.39C29,32.64,29,33,29,33.42Z" transform="translate(-5 -5)"/><path d="M83.23,63.45a30.85,30.85,0,0,0-3.07-1.69C72.49,67.47,63,69.34,56.73,69.92a62.35,62.35,0,0,0,7.09-.15A50.75,50.75,0,0,0,71,68.7a39,39,0,0,0,7.1-2.33A30.43,30.43,0,0,0,83.23,63.45Z" transform="translate(-5 -5)"/></g></g></g></g></svg>
