<svg xmlns="http://www.w3.org/2000/svg" xmlns:xlink="http://www.w3.org/1999/xlink" viewBox="0 0 90 90"><defs><style>.cls-1{fill:none;}.cls-2{clip-path:url(#clip-path);}.cls-3{fill:#303c42;}.cls-4{fill:#fafafa;}.cls-5{opacity:0.1;}.cls-5,.cls-7{isolation:isolate;}.cls-6{fill:#07b107;}.cls-7{fill:#fff;opacity:0.2;}</style><clipPath id="clip-path" transform="translate(-5 -12.5)"><rect class="cls-1" width="100" height="100"/></clipPath></defs><title>models</title><g id="Layer_2" data-name="Layer 2"><g id="Layer_1-2" data-name="Layer 1"><g class="cls-2"><path class="cls-3" d="M93.12,68.75H83.75V31.25h9.37A1.88,1.88,0,0,0,95,29.37V20a7.51,7.51,0,0,0-7.5-7.5h-75A7.51,7.51,0,0,0,5,20v9.37a1.88,1.88,0,0,0,1.88,1.88h9.37v37.5H6.88A1.88,1.88,0,0,0,5,70.62V80a7.51,7.51,0,0,0,7.5,7.5h75A7.51,7.51,0,0,0,95,80V70.62A1.88,1.88,0,0,0,93.12,68.75ZM72.5,31.25V63.57c-1.7-4.55-4.42-8-7.64-9.35a7.24,7.24,0,1,0-6.57,0c-3,1.29-5.53,4.3-7.24,8.33-1.14-4.47-3.35-7.8-7.41-9.11a8,8,0,1,0-8.6,0c-4.23,1.37-6.44,4.89-7.54,9.62V31.25Z" transform="translate(-5 -12.5)"/><circle class="cls-4" cx="56.57" cy="35.27" r="4.34"/><path class="cls-5" d="M63.82,44.08A4.31,4.31,0,0,1,57.88,50a4.33,4.33,0,1,0,5.94-5.94Z" transform="translate(-5 -12.5)"/><circle class="cls-4" cx="34.34" cy="34.22" r="4.79"/><path class="cls-5" d="M41.82,42.64a4.69,4.69,0,0,1,.71,2.48,4.76,4.76,0,0,1-7.26,4.08,4.77,4.77,0,1,0,6.55-6.56Z" transform="translate(-5 -12.5)"/><path class="cls-6" d="M87.5,21.88A1.88,1.88,0,0,1,89.37,20h1.88a3.75,3.75,0,0,0-3.75-3.75h-75A3.75,3.75,0,0,0,8.75,20h1.87a1.88,1.88,0,1,1,0,3.75H8.75V27.5h9.37A1.88,1.88,0,0,1,20,29.38V70.62a1.88,1.88,0,0,1-1.88,1.88H8.75v3.75h1.87a1.88,1.88,0,1,1,0,3.75H8.75a3.75,3.75,0,0,0,3.75,3.75h75A3.75,3.75,0,0,0,91.25,80H89.37a1.88,1.88,0,0,1,0-3.75h1.88V72.5H81.87A1.87,1.87,0,0,1,80,70.63V29.38a1.88,1.88,0,0,1,1.87-1.88h9.38V23.75H89.37A1.87,1.87,0,0,1,87.5,21.88ZM46.42,20h7.16a1.88,1.88,0,1,1,0,3.75H46.42a1.88,1.88,0,0,1,0-3.75Zm28,7.5a1.88,1.88,0,0,1,1.88,1.88V70.63a1.88,1.88,0,0,1-1.88,1.87H25.63a1.88,1.88,0,0,1-1.88-1.87V29.38a1.88,1.88,0,0,1,1.87-1.88ZM24.94,20H32.1a1.88,1.88,0,1,1,0,3.75H24.94a1.88,1.88,0,0,1,0-3.75ZM32.1,80H24.94a1.88,1.88,0,0,1,0-3.75H32.1a1.88,1.88,0,1,1,0,3.75Zm21.48,0H46.42a1.88,1.88,0,0,1,0-3.75h7.16a1.88,1.88,0,1,1,0,3.75Zm21.48,0H67.9a1.88,1.88,0,1,1,0-3.75h7.16a1.88,1.88,0,0,1,0,3.75Zm0-56.25H67.9a1.88,1.88,0,1,1,0-3.75h7.16a1.88,1.88,0,0,1,0,3.75Z" transform="translate(-5 -12.5)"/><path class="cls-7" d="M12.5,18.13h75A3.74,3.74,0,0,1,90.75,20h.5a3.75,3.75,0,0,0-3.75-3.75h-75A3.75,3.75,0,0,0,8.75,20h.5A3.74,3.74,0,0,1,12.5,18.13Z" transform="translate(-5 -12.5)"/><path class="cls-5" d="M87.5,81.87h-75A3.74,3.74,0,0,1,9.25,80h-.5a3.75,3.75,0,0,0,3.75,3.75h75A3.75,3.75,0,0,0,91.25,80h-.5A3.74,3.74,0,0,1,87.5,81.87Z" transform="translate(-5 -12.5)"/></g></g></g></svg>
