<svg xmlns="http://www.w3.org/2000/svg" xmlns:xlink="http://www.w3.org/1999/xlink" viewBox="0 0 90 90"><defs><style>.cls-1{fill:none;}.cls-2{clip-path:url(#clip-path);}.cls-3{fill:#303c42;}.cls-4{fill:#07b107;}.cls-5{opacity:0.1;}.cls-6{opacity:0.2;isolation:isolate;}.cls-7{fill:#fff;}</style><clipPath id="clip-path" transform="translate(-5 -5.02)"><rect class="cls-1" width="100" height="100"/></clipPath></defs><title>rentals</title><g id="Layer_2" data-name="Layer 2"><g id="Layer_1-2" data-name="Layer 1"><g class="cls-2"><path class="cls-3" d="M86.7,13.33A28.4,28.4,0,0,0,40.45,44.45L28.33,56.57H18.44a2.51,2.51,0,0,0-2.51,2.52V67.5H7.52A2.51,2.51,0,0,0,5,70.05l.3,22.19a2.51,2.51,0,0,0,2.46,2.48L19.13,95a2.54,2.54,0,0,0,1.78-.74L55.33,59.81a29.86,29.86,0,0,0,10.91,2.07h0a29.6,29.6,0,0,0,4.7-.38A28.43,28.43,0,0,0,86.7,13.33ZM74.91,32.62a5.32,5.32,0,0,1-7.51,0,5.31,5.31,0,0,1,3.76-9.06,5.26,5.26,0,0,1,3.75,1.55A5.32,5.32,0,0,1,74.91,32.62Z" transform="translate(-5 -5.02)"/><path class="cls-4" d="M83.14,16.89a23.37,23.37,0,0,0-37.42,27,2.53,2.53,0,0,1-.47,2.9l-14.1,14.1a2.54,2.54,0,0,1-1.78.74H21V70a2.51,2.51,0,0,1-2.52,2.51H10.07l.23,17.22,7.81.17L53,55.06a2.51,2.51,0,0,1,2.83-.51,24.76,24.76,0,0,0,10.4,2.27,24.07,24.07,0,0,0,16.94-6.89A23.39,23.39,0,0,0,83.14,16.89ZM74.91,32.62a5.32,5.32,0,0,1-7.51,0,5.31,5.31,0,0,1,3.76-9.06,5.26,5.26,0,0,1,3.75,1.55A5.32,5.32,0,0,1,74.91,32.62Z" transform="translate(-5 -5.02)"/><path class="cls-3" d="M78.47,21.56a10.34,10.34,0,0,0-14.63,0,10.34,10.34,0,1,0,14.63,0ZM74.91,32.62a5.32,5.32,0,0,1-7.51,0,5.31,5.31,0,0,1,3.76-9.06,5.26,5.26,0,0,1,3.75,1.55A5.32,5.32,0,0,1,74.91,32.62Z" transform="translate(-5 -5.02)"/><path class="cls-3" d="M15.16,87.38a2.51,2.51,0,0,1-1.78-4.29L46.54,49.93a2.51,2.51,0,0,1,3.56,0,2.52,2.52,0,0,1,0,3.56L16.94,86.65A2.53,2.53,0,0,1,15.16,87.38Z" transform="translate(-5 -5.02)"/><path class="cls-5" d="M61.67,55.37c-.67-.06-1.33-.15-2-.26s-1.33-.25-2-.42c-.33-.09-.67-.17-1-.28s-.67-.2-1-.3l-.17.33a1.62,1.62,0,0,1,.28.11,24.76,24.76,0,0,0,10.4,2.27,24.07,24.07,0,0,0,16.94-6.89,23.36,23.36,0,1,0-37.42-6.06l.06.12c-.09-.27-.17-.54-.25-.81s-.18-.66-.27-1c-.16-.67-.29-1.33-.4-2s-.19-1.33-.25-2-.07-1.32-.07-2a23.34,23.34,0,0,1,1.28-7.59,21.94,21.94,0,0,1,1.52-3.43,21.19,21.19,0,0,1,2-3.07,21.55,21.55,0,0,1,5.34-4.81,20.52,20.52,0,0,1,13.34-3.1,21,21,0,0,1,3.36.65,18.84,18.84,0,0,1,3.18,1.23A20,20,0,0,1,84,25.57a20,20,0,0,1,1.21,3.18,22.47,22.47,0,0,1,.62,3.37,19.87,19.87,0,0,1,.07,3.45A20.94,20.94,0,0,1,85.37,39a19.87,19.87,0,0,1-1.1,3.32,19,19,0,0,1-1.65,3.12,21.8,21.8,0,0,1-11.37,8.8,23.73,23.73,0,0,1-7.6,1.23Q62.66,55.46,61.67,55.37Z" transform="translate(-5 -5.02)"/><g class="cls-6"><path class="cls-7" d="M13.38,83.09,46.54,49.93a2.51,2.51,0,0,1,3.56,0h0a5.57,5.57,0,0,0-2.5-1.46,2.48,2.48,0,0,0-1.78.74L12.66,82.37c-1,1-.26,3.29.72,4.28h0A2.52,2.52,0,0,1,13.38,83.09Z" transform="translate(-5 -5.02)"/><path class="cls-7" d="M13.38,86.65l.12.11Z" transform="translate(-5 -5.02)"/></g></g></g></g></svg>
