<svg xmlns="http://www.w3.org/2000/svg" xmlns:xlink="http://www.w3.org/1999/xlink" viewBox="0 0 90 90"><defs><style>.cls-1{fill:none;}.cls-2{clip-path:url(#clip-path);}.cls-3{fill:#303c42;}.cls-4{fill:#07b107;}.cls-5{opacity:0.1;}.cls-5,.cls-6{isolation:isolate;}.cls-6{fill:#fff;opacity:0.2;}</style><clipPath id="clip-path" transform="translate(-5 -5)"><rect class="cls-1" width="100" height="100"/></clipPath></defs><title>tourguide</title><g id="Layer_2" data-name="Layer 2"><g id="Layer_1-2" data-name="Layer 1"><g class="cls-2"><path class="cls-3" d="M94.51,37.49,75.76,16.86a1.86,1.86,0,0,0-1.38-.61H54V12.5A7.5,7.5,0,0,0,46.48,5H39a7.51,7.51,0,0,0-7.5,7.5v3.75H6.88A1.88,1.88,0,0,0,5,18.13V59.37a1.88,1.88,0,0,0,1.88,1.88h24.6V80H27.74a7.5,7.5,0,0,0-7.5,7.5v5.62A1.87,1.87,0,0,0,22.11,95H63.36a1.88,1.88,0,0,0,1.88-1.88V87.5a7.51,7.51,0,0,0-7.5-7.5H54V61.25H74.38a1.86,1.86,0,0,0,1.38-.61L94.51,40A1.87,1.87,0,0,0,94.51,37.49Z" transform="translate(-5 -5)"/><path class="cls-4" d="M35.23,12.5A3.76,3.76,0,0,1,39,8.75h7.5a3.75,3.75,0,0,1,3.75,3.75v3.75h-15V12.5Z" transform="translate(-5 -5)"/><path class="cls-4" d="M61.48,87.5v3.75H24V87.5a3.76,3.76,0,0,1,3.75-3.75h30A3.75,3.75,0,0,1,61.48,87.5Z" transform="translate(-5 -5)"/><rect class="cls-4" x="30.23" y="56.25" width="15" height="18.75"/><polygon class="cls-4" points="68.55 52.5 3.75 52.5 3.75 15 68.55 15 85.59 33.75 68.55 52.5"/><polygon class="cls-5" points="68.55 48.75 3.75 48.75 3.75 52.5 68.55 52.5 85.59 33.75 68.55 48.75"/><polygon class="cls-6" points="3.75 15 3.75 18.75 68.55 18.75 85.59 33.75 68.55 15 3.75 15"/></g></g></g></svg>